<svg width="790" height="595" fill="none" xmlns="http://www.w3.org/2000/svg"><g clip-path="url(#clip0)"><g filter="url(#filter0_d)" fill="#E5A4ED"><rect x="402.303" y="245" width="4" height="114.734" rx="2"/><rect x="367" y="279.42" width="114.734" height="4" rx="2"/><rect x="367" y="322.666" width="114.734" height="4" rx="2"/><rect x="449.079" y="245" width="4" height="114.734" rx="2"/></g><path d="M745.344 474.396c-.788-.788-.788-2.099 0-2.914a2.093 2.093 0 012.914 0l17.485 17.51 17.514-17.51a2.058 2.058 0 012.885 0c.815.815.815 2.128 0 2.914l-17.485 17.482 17.485 17.51c.815.787.815 2.098 0 2.913a2.056 2.056 0 01-2.885 0l-17.514-17.51-17.485 17.51a2.091 2.091 0 01-2.914 0c-.788-.815-.788-2.127 0-2.913l17.485-17.51-17.485-17.482zM741.969 164.368c-.788-.788-.788-2.098 0-2.913a2.091 2.091 0 012.914 0l17.485 17.51 17.514-17.51a2.056 2.056 0 012.885 0c.815.815.815 2.127 0 2.913l-17.485 17.482 17.485 17.51c.815.788.815 2.098 0 2.913a2.056 2.056 0 01-2.885 0l-17.514-17.51-17.485 17.51a2.091 2.091 0 01-2.914 0c-.788-.815-.788-2.127 0-2.913l17.485-17.51-17.485-17.482zM107.474 252.303c-.787-.788-.787-2.098 0-2.913a2.091 2.091 0 012.914 0l17.485 17.51 17.515-17.51a2.055 2.055 0 012.884 0c.815.815.815 2.127 0 2.913l-17.485 17.482 17.485 17.51c.815.788.815 2.098 0 2.913a2.055 2.055 0 01-2.884 0l-17.515-17.51-17.485 17.51a2.091 2.091 0 01-2.914 0c-.787-.815-.787-2.127 0-2.913l17.485-17.51-17.485-17.482z" fill="#BAC5F4"/><path d="M160.776 498.319c-1.35-1.35-1.35-3.597 0-4.994a3.588 3.588 0 014.996 0l29.974 30.017 30.025-30.017c1.35-1.35 3.597-1.35 4.945 0 1.397 1.397 1.397 3.647 0 4.994l-29.975 29.97 29.975 30.017c1.397 1.35 1.397 3.597 0 4.994-1.351 1.35-3.598 1.35-4.945 0l-30.025-30.017-29.974 30.017a3.588 3.588 0 01-4.996 0c-1.35-1.397-1.35-3.647 0-4.994l29.975-30.017-29.975-29.97z" fill="#E1E6FB"/><path d="M77.04 314.694c-12.034-84.933-38.923-92.337-59.6-135.207C-1.382 140.492-16.562 76.697 36.56 31.09c82.519-70.901 183.72 1.649 183.72 1.649s160.367 97.282 188.392 102.229c28.025 4.946 96.531 54.412 182.163-4.947s158.809-54.412 182.164-9.893c23.354 44.519-29.583 173.13-42.038 199.512-12.456 26.382 6.228 108.825 26.468 141.802 20.24 32.977 84.075 135.207-52.936 131.909C567.481 590.053 156.445 595 156.445 595S8.893 592.082 35.003 440.007C56.8 313.045 81.712 347.671 77.041 314.694z" fill="#F8F8FF" fill-opacity=".2"/><path d="M76.79 328.887c11.322 0 20.5-9.178 20.5-20.5s-9.178-20.5-20.5-20.5-20.5 9.178-20.5 20.5 9.178 20.5 20.5 20.5zM80.633 270.726c6.628 0 12-5.372 12-12 0-6.627-5.372-12-12-12-6.627 0-12 5.373-12 12 0 6.628 5.373 12 12 12zM24.044 115.317c6.903 0 12.5-5.597 12.5-12.5 0-6.904-5.597-12.5-12.5-12.5-6.904 0-12.5 5.596-12.5 12.5 0 6.903 5.596 12.5 12.5 12.5z" fill="#BAC5F4"/><path d="M577.279 569.982c20.158 0 36.5-16.342 36.5-36.5 0-20.159-16.342-36.5-36.5-36.5s-36.5 16.341-36.5 36.5c0 20.158 16.342 36.5 36.5 36.5zM719.704 350.937c11.045 0 20-8.955 20-20 0-11.046-8.955-20-20-20-11.046 0-20 8.954-20 20 0 11.045 8.954 20 20 20zM569.978 176.902c22.092 0 40-17.908 40-40 0-22.091-17.908-40-40-40-22.091 0-40 17.909-40 40 0 22.092 17.909 40 40 40zM203.312 45.703c11.322 0 20.5-9.178 20.5-20.5s-9.178-20.5-20.5-20.5c-11.321 0-20.5 9.178-20.5 20.5s9.179 20.5 20.5 20.5zM141.594 455.661c11.322 0 20.5-9.178 20.5-20.5s-9.178-20.5-20.5-20.5-20.5 9.178-20.5 20.5 9.178 20.5 20.5 20.5z" fill="#E1E6FB"/><path d="M731.005 564.324c11.321 0 20.5-9.178 20.5-20.5s-9.179-20.5-20.5-20.5c-11.322 0-20.5 9.178-20.5 20.5s9.178 20.5 20.5 20.5zM778.051 568.728c6.627 0 12-5.373 12-12 0-6.628-5.373-12-12-12-6.628 0-12 5.372-12 12 0 6.627 5.372 12 12 12z" fill="#BAC5F4"/></g><g clip-path="url(#clip1)"><path d="M297.309 472.77c-5.532-.272-11.768-5.981-11.768-5.981l-12.372-1.45s-3.822 10.512.302 12.687c4.124 2.175 28.968 2.81 28.968 0 0-2.809-.402-5.075-5.13-5.256zM213.119 472.408c-4.828-2.447-7.544-10.15-7.544-10.15l-10.36-6.253s-8.751 7.884-6.035 11.418c2.715 3.535 24.442 14.319 25.85 11.781 1.408-2.537 2.213-4.621-1.911-6.796z" fill="#4B49BB"/><path d="M231.627 173.172s11.869-22.656 30.98-10.875c19.112 11.781 19.514 27.278 13.781 34.709-6.74 8.79-5.03 15.949-3.823 18.759.302.815 1.006 1.54 1.811 1.903l32.288 16.312 12.875 10.965 30.98-35.162s5.03-6.343 14.082-6.343c9.053 0 13.076 2.719 13.076 2.719s1.006 3.624-10.058 6.343l-11.065 2.719-28.164 45.311s-8.348 3.172-17.3-3.534c-7.846-5.891-15.189-12.234-21.928-19.122l-1.006 105.123 3.42 30.086-1.408 17.762c.1 1.632-.704 19.212-.805 20.844l-2.213 27.186-2.716 27.55-11.265-1.269-1.911-19.937-4.426-71.683-.503-64.795-19.514 40.599.704 23.653-16.093 44.948c-.704 1.904-1.509 3.716-2.515 5.438l-23.034 39.149-10.863-6.072 12.372-28.274c1.307-2.447 7.745-21.206 8.549-23.834l8.248-35.161 35.809-122.975-18.005 8.246s-13.177 26.553-15.188 29.271c-2.012 2.719-26.052 30.087-27.058 33.712-1.006 3.625-4.828 10.603-9.857 12.415-5.03 1.813-14.082 4.803-1.006-12.415 10.26-13.503 16.798-23.562 19.212-27.187.603-.997 1.207-1.993 1.71-3.081l13.579-30.812 21.626-31.264 2.917-1.903 6.135-4.35a2.501 2.501 0 001.107-2.356c-.704-4.169-3.118-7.975-6.84-10.513-7.041-5.075-21.324-14.681-16.697-32.805z" fill="url(#paint0_linear)"/><path d="M235.851 310.375l-12.07 58.904 24.141 4.531 15.088-48.936 3.621 48.846h25.247l2.313-76.033-58.34 12.688z" fill="url(#paint1_linear)"/><path d="M222.876 256.998s7.745-25.193 23.336-33.531c1.609-.815 4.426-3.443 4.627-1.903.302 2.719 2.011 9.063 9.052 9.063 11.065 0 14.284-8.338 14.284-12.869 0-1.359 6.236-1.087 11.668-.272 5.13.725 10.259 2.719 13.679 6.163l10.26 12.959-9.556 9.515-3.017 1.45-3.018 50.205s-22.229 9.243-42.246 11.781c-5.331.544-10.762.906-16.094.906l4.024-51.655-16.999-1.812z" fill="url(#paint2_linear)"/><path d="M238.567 189.122a100.585 100.585 0 0111.467-10.603c5.834-4.35 8.852-6.888 8.852-6.888s7.946 5.256 11.165 6.253c3.218.997 8.047 2.81 8.047 2.81s2.715-8.156-4.024-9.153c-6.739-.997-26.957-7.613-31.182-4.713-4.224 2.9-11.366 11.238-12.372 15.225-1.005 3.987 1.509 9.153 3.119 10.15.905.543-1.61-4.078-.202-4.985 1.006-.815 5.13 1.904 5.13 1.904z" fill="url(#paint3_linear)"/><path d="M230.52 182.054l63.068-13.322s1.207-2.628-1.107-2.718c-2.313-.091-16.697 4.259-16.697 4.259s-6.236-16.493-26.555-16.131c0 0 .805-1.631-.301-1.722-1.107-.09-6.337 1.178-6.74 1.541-.402.362.805 1.45.202 1.903-.604.453-18.307 8.065-11.87 26.19z" fill="#4B49BB"/><path opacity=".07" d="M274.577 198.909s-4.124 4.621-7.443 5.618c-3.32.997-1.409 1.088 0 4.803.704 1.994 1.71 3.806 3.017 5.528 0 0 1.811-14.59 4.426-15.949zM242.39 155.954s2.816 2.446 1.005 8.881c-1.81 6.434-2.414 8.428-.905 10.874 1.509 2.447.402 3.807.402 3.807l-12.372 2.628c.101-.091-7.644-16.403 11.87-26.19zM239.875 258.72s3.923-5.075 4.325-9.697c.402-4.622-1.81 9.153.704 17.4 2.515 8.246-.402 15.405 4.728 18.305 5.13 2.9 1.106 12.778 2.213 17.037.704 2.538 2.715 4.622 5.431 5.619 0 0-.704 2.266-9.455 2.628-8.751.363-11.97.363-11.97.363l4.024-51.655z" fill="#000"/></g><g clip-path="url(#clip2)"><path d="M562.553 467.769s-7.107 7.21-12.437 7.487c-4.541.185-5.133 1.849-5.133 4.715 0 2.865 19.741 2.311 26.157 1.201 4.54-.739 1.382-13.218 1.382-13.218l-9.969-.185zM625.23 466.475l-8.982.832s-6.712 7.302-11.943 7.949c-4.541.555-5.626 2.404-5.429 5.269.197 2.866 22.505.925 26.354-1.479 3.85-2.403 0-12.571 0-12.571z" fill="#4B49BB"/><path d="M607.462 176.955c-1.777 18.765-3.553 18.303-9.179 24.866-2.764 3.236-7.305 7.211-7.798 11.37-.099.925.296 1.757 1.086 2.404l5.922 4.437 2.468 1.756c.197.185.394.37.493.555l20.531 31.522.098.092 12.733 22.74c.79 1.387-.394 5.731-1.579 6.933-6.12 6.101-20.234 12.572-18.162 18.673 6.811 20.151 1.284 15.437-2.665 12.202-2.072-1.757-4.836-10.076-5.823-13.774-.987-3.697 17.767-21.261 15.793-24.034-1.777-2.588-15.695-21.353-17.866-24.311-.198-.278-.395-.463-.79-.647l-13.127-6.379c-.988-.462-2.271-.092-2.764.832-.198.37-.296.74-.198 1.202l20.136 109.355v.093l3.554 29.211v.184c.098 3.513 1.776 20.152 2.171 23.48.987 6.656 2.665 9.891 3.948 16.084l8.291 38.547c.198 1.11 1.185 3.975 0 4.16l-6.81.093c-.987.092-1.974-1.757-2.27-2.681l-14.51-41.32c-.987-3.143-5.922-12.11-7.304-19.043-1.974-9.521-3.85-20.336-4.738-24.496l-4.244-22.74c-.099-.74.197-1.572.888-1.941l11.154-6.656c.888-.462 1.184-1.479.789-2.403l-12.338-27.825c-.493-1.016-1.678-1.386-2.764-1.016-.789.369-1.283 1.109-1.184 1.941l3.652 33.74v.37l-2.171 25.143v.185l-5.923 33.463v.185l-4.343 52.875c-.098 1.017-.296 3.235-1.283 3.235l-7.304.278c-1.185 0-1.678-2.496-1.678-3.605l-.197-26.808v-.092l-1.382-18.765v-.185c-.691-3.79-.198-11.925 0-17.656.296-7.857.987-12.294 1.085-13.681l.691-21.908v-.277l-3.652-24.312V240.646c0-1.109-.888-1.941-2.073-1.941-.69 0-1.283.277-1.678.832-4.836 6.47-10.561 12.479-16.977 17.655-5.922 4.622-9.574 5.454-11.351 5.547-.691 0-1.382-.278-1.777-.832l-31.585-41.228c-.395-.555-1.185-.832-1.876-.832l-4.737.462h-.395c-7.304-.647-11.45-2.681-13.918-3.512-.789-.278-1.184-1.017-.888-1.664.099-.278.296-.463.494-.647 3.75-2.496 8.291-3.975 12.93-4.16a36.838 36.838 0 0115.398 3.697c.197.093.493.278.592.463l26.058 30.782c.691.832 1.974 1.017 2.863.37.197-.093.296-.278.395-.463l10.364-13.866c.197-.277.394-.462.69-.554l30.599-16.454c.79-.463 1.481-1.11 1.777-1.942 1.085-2.865 2.27-5.731-2.27-13.958-3.159-5.731-6.614-28.656 11.745-40.673 3.751-2.496 1.876 1.849 5.034 1.849 12.141 0 16.78 12.756 16.78 12.756" fill="url(#paint4_linear)"/><path d="M572.127 214.578c0 4.622 3.159 13.126 13.72 13.126 6.811 0 8.39-6.563 8.785-9.244.197-1.571 2.862 1.11 4.441 1.942 15.102 8.504 22.505 34.202 22.505 34.202l-16.286 1.756-2.073 37.993 23.294 63.968c.395 1.017-.197 2.126-1.283 2.496-.296.092-.592.092-.987.092-9.081-1.109-33.954-3.882-38.495-.924-11.647 7.395-41.16 4.16-41.16 1.386 0-4.067 13.918-72.287 13.918-72.287l-8.292-44.278-2.368-1.757-9.081-8.781 9.179-13.774c3.258-3.513 8.193-5.546 13.128-6.286 2.468-.37 5.034-.554 7.502-.647 2.072.185 3.553.37 3.553 1.017z" fill="url(#paint5_linear)"/><path d="M604.798 194.796c-.789.277-1.678 0-2.171-.647-3.85-4.714-19.445-23.849-20.037-25.051-.691-1.387-11.45 10.63-13.128 15.16-1.974 5.454-2.468-8.597-3.356-10.723-.888-2.126-8.291 8.782-12.141 9.706-3.849.925-5.034-1.386-7.6 2.866-1.481 2.588 1.382-15.807 11.252-21.908 6.416-3.975 8.193 6.286 8.193 6.286 3.652-4.715 8.39-8.597 13.819-11.37 7.896-4.068 15.496-4.345 25.564 4.437 5.824 5.084 10.759 15.252 10.562 19.966-.198 4.53 4.737.648 5.626-.277.888-.924 9.475 1.202 7.995 7.95-1.481 6.748-1.777 6.378-7.107 10.353-2.961 2.126-5.527 4.714-7.403 7.58v-17.101c-.099-1.849-5.823 1.294-10.068 2.773z" fill="url(#paint6_linear)"/><path opacity=".07" d="M582.59 206.258s7.106 4.16 10.66-.184c2.27-2.866-4.146 6.008-3.06 9.521 1.086 3.513-7.6-9.337-7.6-9.337zM596.211 239.721l8.982 16.639-2.073 37.993 23.295 63.968s4.836 3.235-8.785 1.849c-13.621-1.387-22.406-1.849-26.749-1.849s-14.608-4.068.987-18.211c6.317-5.731 4.837-10.076.493-25.051-4.343-14.975 9.279-12.294 0-24.681-9.278-12.387 13.128-29.673 3.85-50.657z" fill="#000"/></g><defs><linearGradient id="paint0_linear" x1="182.122" y1="312.664" x2="377.701" y2="312.664" gradientUnits="userSpaceOnUse"><stop stop-color="#F87B58"/><stop offset=".5" stop-color="#F8C548"/><stop offset="1" stop-color="#F89C51"/></linearGradient><linearGradient id="paint1_linear" x1="223.781" y1="335.749" x2="294.191" y2="335.749" gradientUnits="userSpaceOnUse"><stop stop-color="#4B45BD"/><stop offset="1" stop-color="#58CAEA"/></linearGradient><linearGradient id="paint2_linear" x1="222.876" y1="263.636" x2="309.782" y2="263.636" gradientUnits="userSpaceOnUse"><stop stop-color="#E5A4ED"/><stop offset="1" stop-color="#FF0A6C"/><stop offset="1" stop-color="#FF0A6C"/></linearGradient><linearGradient id="paint3_linear" x1="230.353" y1="179.173" x2="278.701" y2="179.173" gradientUnits="userSpaceOnUse"><stop stop-color="#4B45BD"/><stop offset="1" stop-color="#58CAEA"/></linearGradient><linearGradient id="paint4_linear" x1="471.546" y1="313.425" x2="634.072" y2="313.425" gradientUnits="userSpaceOnUse"><stop offset=".02" stop-color="#F87B58"/><stop offset=".51" stop-color="#F8C548"/><stop offset="1" stop-color="#F89C51"/></linearGradient><linearGradient id="paint5_linear" x1="538.765" y1="289.041" x2="626.636" y2="289.041" gradientUnits="userSpaceOnUse"><stop stop-color="#E5A4ED"/><stop offset="1" stop-color="#FF0A6C"/><stop offset="1" stop-color="#FF0A6C"/></linearGradient><linearGradient id="paint6_linear" x1="628.406" y1="182.755" x2="549.519" y2="182.755" gradientUnits="userSpaceOnUse"><stop stop-color="#4A3CDB"/><stop offset="1" stop-color="#948BF5"/></linearGradient><clipPath id="clip0"><path fill="#fff" d="M0 0h790v595H0z"/></clipPath><clipPath id="clip1"><path fill="#fff" transform="translate(182.136 152.419)" d="M0 0h195.545v327.419H0z"/></clipPath><clipPath id="clip2"><path fill="#fff" transform="translate(471.542 154.677)" d="M0 0h195.545v327.419H0z"/></clipPath><filter id="filter0_d" x="363" y="245" width="122.734" height="122.734" filterUnits="userSpaceOnUse" color-interpolation-filters="sRGB"><feFlood flood-opacity="0" result="BackgroundImageFix"/><feColorMatrix in="SourceAlpha" values="0 0 0 0 0 0 0 0 0 0 0 0 0 0 0 0 0 0 127 0"/><feOffset dy="4"/><feGaussianBlur stdDeviation="2"/><feColorMatrix values="0 0 0 0 0 0 0 0 0 0 0 0 0 0 0 0 0 0 0.25 0"/><feBlend in2="BackgroundImageFix" result="effect1_dropShadow"/><feBlend in="SourceGraphic" in2="effect1_dropShadow" result="shape"/></filter></defs></svg>