<svg width="268" height="70" fill="none" xmlns="http://www.w3.org/2000/svg"><g filter="url(#filter0_d)"><rect x="22.691" y=".516" width="2.114" height="60.645" rx="1.057" fill="#E5A4ED"/></g><g filter="url(#filter1_d)"><rect x="4.031" y="18.709" width="60.645" height="2.114" rx="1.057" fill="#E5A4ED"/></g><g filter="url(#filter2_d)"><rect x="4.031" y="41.567" width="60.645" height="2.114" rx="1.057" fill="#E5A4ED"/></g><g filter="url(#filter3_d)"><rect x="47.416" y=".516" width="2.114" height="60.645" rx="1.057" fill="#E5A4ED"/></g><g filter="url(#filter4_d)"><path d="M77.022 41.18c-.92.04-1.62-.1-2.1-.42-.46-.32-.69-.81-.69-1.47 0-.6.15-1.04.45-1.32.3-.3.77-.47 1.41-.51l.96-.06c1.44-.06 2.16-.91 2.16-2.55V22.01c0-.7.22-1.26.66-1.68.44-.42 1.01-.63 1.71-.63s1.26.21 1.68.63c.44.42.66.98.66 1.68v12.78c0 3.96-1.98 6.07-5.94 6.33l-.96.06zm17.819.06c-1.56 0-2.93-.31-4.11-.93-1.18-.64-2.09-1.53-2.73-2.67-.64-1.16-.96-2.52-.96-4.08s.32-2.91.96-4.05a6.508 6.508 0 012.73-2.67c1.18-.62 2.55-.93 4.11-.93 1.56 0 2.93.31 4.11.93 1.18.62 2.09 1.51 2.73 2.67.64 1.14.96 2.49.96 4.05 0 1.56-.32 2.92-.96 4.08-.64 1.14-1.55 2.03-2.73 2.67-1.18.62-2.55.93-4.11.93zm0-3.45c2.2 0 3.3-1.41 3.3-4.23 0-1.42-.29-2.48-.87-3.18-.56-.7-1.37-1.05-2.43-1.05-2.2 0-3.3 1.41-3.3 4.23 0 2.82 1.1 4.23 3.3 4.23zm23.336-11.82c.68 0 1.22.2 1.62.6.42.38.63.89.63 1.53v11.31c0 2.38-.69 4.18-2.07 5.4-1.38 1.22-3.4 1.83-6.06 1.83-2.24 0-4.08-.4-5.52-1.2-.36-.2-.64-.45-.84-.75-.2-.28-.3-.6-.3-.96 0-.5.12-.91.36-1.23.24-.32.56-.48.96-.48.22 0 .48.04.78.12.3.1.61.21.93.33.64.24 1.23.43 1.77.57.54.14 1.12.21 1.74.21 1.28 0 2.23-.29 2.85-.87.62-.58.93-1.46.93-2.64v-1.62c-.42.76-1.05 1.36-1.89 1.8-.84.44-1.78.66-2.82.66-1.28 0-2.42-.3-3.42-.9-.98-.6-1.75-1.45-2.31-2.55-.56-1.12-.84-2.41-.84-3.87s.28-2.74.84-3.84c.56-1.12 1.33-1.98 2.31-2.58 1-.62 2.14-.93 3.42-.93 1.02 0 1.94.22 2.76.66.84.42 1.48 1.01 1.92 1.77v-.3c0-.64.2-1.14.6-1.5.42-.38.97-.57 1.65-.57zm-5.61 11.16c1.06 0 1.88-.34 2.46-1.02.6-.68.9-1.63.9-2.85 0-1.22-.3-2.17-.9-2.85-.58-.7-1.4-1.05-2.46-1.05s-1.89.35-2.49 1.05c-.6.68-.9 1.63-.9 2.85 0 1.22.3 2.17.9 2.85.6.68 1.43 1.02 2.49 1.02zm18.426 4.11c-1.56 0-2.93-.31-4.11-.93-1.18-.64-2.09-1.53-2.73-2.67-.64-1.16-.96-2.52-.96-4.08s.32-2.91.96-4.05a6.508 6.508 0 012.73-2.67c1.18-.62 2.55-.93 4.11-.93 1.56 0 2.93.31 4.11.93 1.18.62 2.09 1.51 2.73 2.67.64 1.14.96 2.49.96 4.05 0 1.56-.32 2.92-.96 4.08-.64 1.14-1.55 2.03-2.73 2.67-1.18.62-2.55.93-4.11.93zm0-3.45c2.2 0 3.3-1.41 3.3-4.23 0-1.42-.29-2.48-.87-3.18-.56-.7-1.37-1.05-2.43-1.05-2.2 0-3.3 1.41-3.3 4.23 0 2.82 1.1 4.23 3.3 4.23zm31.505-18.09c.7 0 1.26.19 1.68.57.44.38.66.88.66 1.5v17.28c0 .64-.21 1.16-.63 1.56-.4.38-.94.57-1.62.57-.68 0-1.23-.19-1.65-.57-.4-.4-.6-.92-.6-1.56v-.24c-.44.76-1.07 1.36-1.89 1.8-.8.42-1.71.63-2.73.63-1.26 0-2.39-.32-3.39-.96-.98-.66-1.75-1.57-2.31-2.73-.54-1.18-.81-2.53-.81-4.05s.27-2.85.81-3.99c.56-1.16 1.33-2.05 2.31-2.67.98-.62 2.11-.93 3.39-.93 1 0 1.9.21 2.7.63.82.42 1.45 1.01 1.89 1.77v-6.63c0-.6.2-1.08.6-1.44.4-.36.93-.54 1.59-.54zm-5.46 18.09c1.06 0 1.87-.36 2.43-1.08.58-.74.87-1.79.87-3.15 0-1.36-.29-2.4-.87-3.12-.56-.72-1.37-1.08-2.43-1.08s-1.88.36-2.46 1.08c-.58.7-.87 1.72-.87 3.06 0 1.36.29 2.42.87 3.18.58.74 1.4 1.11 2.46 1.11zm17.919-11.88c2.16 0 3.76.53 4.8 1.59 1.04 1.04 1.56 2.64 1.56 4.8v6.78c0 .66-.19 1.18-.57 1.56-.38.36-.91.54-1.59.54-.64 0-1.16-.19-1.56-.57-.38-.4-.57-.91-.57-1.53v-.21c-.3.74-.8 1.32-1.5 1.74-.7.42-1.52.63-2.46.63-1 0-1.91-.2-2.73-.6-.8-.4-1.44-.96-1.92-1.68-.46-.72-.69-1.52-.69-2.4 0-1.08.27-1.93.81-2.55.56-.62 1.45-1.07 2.67-1.35s2.89-.42 5.01-.42h.78v-.54c0-.84-.19-1.45-.57-1.83-.36-.38-.97-.57-1.83-.57-.86 0-2.1.3-3.72.9-.46.22-.85.33-1.17.33-.44 0-.79-.15-1.05-.45-.26-.32-.39-.73-.39-1.23 0-.4.09-.73.27-.99.18-.26.47-.5.87-.72.7-.38 1.55-.68 2.55-.9 1.02-.22 2.02-.33 3-.33zm-.9 12.21c.88 0 1.59-.29 2.13-.87.54-.6.81-1.37.81-2.31v-.51h-.51c-1.62 0-2.76.13-3.42.39-.64.26-.96.73-.96 1.41 0 .56.18 1.02.54 1.38.38.34.85.51 1.41.51zm29.076-10.86c.2-.42.46-.73.78-.93.34-.22.7-.33 1.08-.33.56 0 1.06.19 1.5.57.44.36.66.8.66 1.32 0 .3-.07.59-.21.87l-5.4 11.07c-.2.44-.5.78-.9 1.02-.4.22-.83.33-1.29.33-.46 0-.89-.11-1.29-.33-.4-.24-.71-.58-.93-1.02l-5.4-11.07c-.12-.28-.18-.55-.18-.81 0-.54.23-1 .69-1.38.48-.38 1.01-.57 1.59-.57.42 0 .8.11 1.14.33.34.2.61.51.81.93l3.69 8.07 3.66-8.07zm17.502 9.36c.4 0 .72.16.96.48.26.32.39.73.39 1.23 0 .34-.1.66-.3.96-.2.28-.48.52-.84.72-.68.36-1.47.66-2.37.9-.9.22-1.73.33-2.49.33-1.6 0-3-.31-4.2-.93a6.557 6.557 0 01-2.73-2.64c-.64-1.16-.96-2.52-.96-4.08 0-1.5.31-2.83.93-3.99.62-1.16 1.48-2.06 2.58-2.7 1.1-.66 2.35-.99 3.75-.99 1.34 0 2.51.3 3.51.9 1.02.58 1.81 1.42 2.37 2.52.56 1.08.84 2.35.84 3.81 0 .44-.11.78-.33 1.02-.2.22-.49.33-.87.33h-8.4c.14 1.18.5 2.04 1.08 2.58.58.52 1.41.78 2.49.78.58 0 1.1-.07 1.56-.21.46-.14.97-.33 1.53-.57.28-.12.55-.22.81-.3.26-.1.49-.15.69-.15zm-5.16-7.59c-.86 0-1.55.28-2.07.84-.52.54-.83 1.33-.93 2.37h5.79c-.06-1.06-.33-1.86-.81-2.4-.46-.54-1.12-.81-1.98-.81zm11.616 12.15c-.66 0-1.21-.18-1.65-.54-.42-.36-.63-.89-.63-1.59V21.83c0-.7.21-1.23.63-1.59.44-.36.99-.54 1.65-.54.64 0 1.17.18 1.59.54.44.36.66.89.66 1.59v17.22c0 .7-.22 1.23-.66 1.59-.42.36-.95.54-1.59.54zm15.048-15.27c3.42 0 5.13 2.07 5.13 6.21v6.93c0 .66-.21 1.18-.63 1.56-.4.38-.95.57-1.65.57s-1.25-.19-1.65-.57c-.4-.38-.6-.9-.6-1.56v-6.99c0-.88-.19-1.53-.57-1.95-.36-.44-.93-.66-1.71-.66-.94 0-1.7.3-2.28.9-.56.6-.84 1.4-.84 2.4v6.3c0 .66-.2 1.18-.6 1.56-.4.38-.95.57-1.65.57s-1.26-.19-1.68-.57c-.4-.38-.6-.9-.6-1.56V21.77c0-.62.21-1.12.63-1.5.44-.38 1.01-.57 1.71-.57.66 0 1.19.18 1.59.54.4.36.6.84.6 1.44v6.54c.52-.76 1.19-1.33 2.01-1.71.82-.4 1.75-.6 2.79-.6zm15.142 0c2.16 0 3.76.53 4.8 1.59 1.04 1.04 1.56 2.64 1.56 4.8v6.78c0 .66-.19 1.18-.57 1.56-.38.36-.91.54-1.59.54-.64 0-1.16-.19-1.56-.57-.38-.4-.57-.91-.57-1.53v-.21c-.3.74-.8 1.32-1.5 1.74-.7.42-1.52.63-2.46.63-1 0-1.91-.2-2.73-.6-.8-.4-1.44-.96-1.92-1.68-.46-.72-.69-1.52-.69-2.4 0-1.08.27-1.93.81-2.55.56-.62 1.45-1.07 2.67-1.35s2.89-.42 5.01-.42h.78v-.54c0-.84-.19-1.45-.57-1.83-.36-.38-.97-.57-1.83-.57-.86 0-2.1.3-3.72.9-.46.22-.85.33-1.17.33-.44 0-.79-.15-1.05-.45-.26-.32-.39-.73-.39-1.23 0-.4.09-.73.27-.99.18-.26.47-.5.87-.72.7-.38 1.55-.68 2.55-.9 1.02-.22 2.02-.33 3-.33zm-.9 12.21c.88 0 1.59-.29 2.13-.87.54-.6.81-1.37.81-2.31v-.51h-.51c-1.62 0-2.76.13-3.42.39-.64.26-.96.73-.96 1.41 0 .56.18 1.02.54 1.38.38.34.85.51 1.41.51z" fill="#E5A4ED"/></g><defs><filter id="filter0_d" x="18.691" y=".516" width="10.114" height="68.644" filterUnits="userSpaceOnUse" color-interpolation-filters="sRGB"><feFlood flood-opacity="0" result="BackgroundImageFix"/><feColorMatrix in="SourceAlpha" values="0 0 0 0 0 0 0 0 0 0 0 0 0 0 0 0 0 0 127 0"/><feOffset dy="4"/><feGaussianBlur stdDeviation="2"/><feColorMatrix values="0 0 0 0 0 0 0 0 0 0 0 0 0 0 0 0 0 0 0.25 0"/><feBlend in2="BackgroundImageFix" result="effect1_dropShadow"/><feBlend in="SourceGraphic" in2="effect1_dropShadow" result="shape"/></filter><filter id="filter1_d" x=".031" y="18.709" width="68.644" height="10.114" filterUnits="userSpaceOnUse" color-interpolation-filters="sRGB"><feFlood flood-opacity="0" result="BackgroundImageFix"/><feColorMatrix in="SourceAlpha" values="0 0 0 0 0 0 0 0 0 0 0 0 0 0 0 0 0 0 127 0"/><feOffset dy="4"/><feGaussianBlur stdDeviation="2"/><feColorMatrix values="0 0 0 0 0 0 0 0 0 0 0 0 0 0 0 0 0 0 0.25 0"/><feBlend in2="BackgroundImageFix" result="effect1_dropShadow"/><feBlend in="SourceGraphic" in2="effect1_dropShadow" result="shape"/></filter><filter id="filter2_d" x=".031" y="41.567" width="68.644" height="10.114" filterUnits="userSpaceOnUse" color-interpolation-filters="sRGB"><feFlood flood-opacity="0" result="BackgroundImageFix"/><feColorMatrix in="SourceAlpha" values="0 0 0 0 0 0 0 0 0 0 0 0 0 0 0 0 0 0 127 0"/><feOffset dy="4"/><feGaussianBlur stdDeviation="2"/><feColorMatrix values="0 0 0 0 0 0 0 0 0 0 0 0 0 0 0 0 0 0 0.25 0"/><feBlend in2="BackgroundImageFix" result="effect1_dropShadow"/><feBlend in="SourceGraphic" in2="effect1_dropShadow" result="shape"/></filter><filter id="filter3_d" x="43.416" y=".516" width="10.114" height="68.644" filterUnits="userSpaceOnUse" color-interpolation-filters="sRGB"><feFlood flood-opacity="0" result="BackgroundImageFix"/><feColorMatrix in="SourceAlpha" values="0 0 0 0 0 0 0 0 0 0 0 0 0 0 0 0 0 0 127 0"/><feOffset dy="4"/><feGaussianBlur stdDeviation="2"/><feColorMatrix values="0 0 0 0 0 0 0 0 0 0 0 0 0 0 0 0 0 0 0.25 0"/><feBlend in2="BackgroundImageFix" result="effect1_dropShadow"/><feBlend in="SourceGraphic" in2="effect1_dropShadow" result="shape"/></filter><filter id="filter4_d" x="70.998" y="19.7" width="195.878" height="33.409" filterUnits="userSpaceOnUse" color-interpolation-filters="sRGB"><feFlood flood-opacity="0" result="BackgroundImageFix"/><feColorMatrix in="SourceAlpha" values="0 0 0 0 0 0 0 0 0 0 0 0 0 0 0 0 0 0 127 0"/><feOffset dy="3.234"/><feGaussianBlur stdDeviation="1.617"/><feColorMatrix values="0 0 0 0 0 0 0 0 0 0 0 0 0 0 0 0 0 0 0.25 0"/><feBlend in2="BackgroundImageFix" result="effect1_dropShadow"/><feBlend in="SourceGraphic" in2="effect1_dropShadow" result="shape"/></filter></defs></svg>