<svg width="790" height="595" fill="none" xmlns="http://www.w3.org/2000/svg"><path d="M745.344 474.396c-.788-.788-.788-2.099 0-2.914a2.093 2.093 0 012.914 0l17.485 17.51 17.514-17.51a2.058 2.058 0 012.885 0c.815.815.815 2.128 0 2.914l-17.485 17.482 17.485 17.51c.815.787.815 2.098 0 2.913a2.056 2.056 0 01-2.885 0l-17.514-17.51-17.485 17.51a2.091 2.091 0 01-2.914 0c-.788-.815-.788-2.127 0-2.913l17.485-17.51-17.485-17.482zM741.969 164.368c-.788-.788-.788-2.098 0-2.913a2.091 2.091 0 012.914 0l17.485 17.51 17.514-17.51a2.056 2.056 0 012.885 0c.815.815.815 2.127 0 2.913l-17.485 17.482 17.485 17.51c.815.788.815 2.098 0 2.913a2.056 2.056 0 01-2.885 0l-17.514-17.51-17.485 17.51a2.091 2.091 0 01-2.914 0c-.788-.815-.788-2.127 0-2.913l17.485-17.51-17.485-17.482zM107.474 252.303c-.787-.788-.787-2.098 0-2.913a2.091 2.091 0 012.914 0l17.485 17.51 17.515-17.51a2.055 2.055 0 012.884 0c.815.815.815 2.127 0 2.913l-17.485 17.482 17.485 17.51c.815.788.815 2.098 0 2.913a2.055 2.055 0 01-2.884 0l-17.515-17.51-17.485 17.51a2.091 2.091 0 01-2.914 0c-.787-.815-.787-2.127 0-2.913l17.485-17.51-17.485-17.482z" fill="#BAC5F4"/><path d="M160.776 498.319c-1.35-1.35-1.35-3.597 0-4.994a3.588 3.588 0 014.996 0l29.974 30.017 30.025-30.017c1.35-1.35 3.597-1.35 4.945 0 1.397 1.397 1.397 3.647 0 4.994l-29.975 29.97 29.975 30.017c1.397 1.35 1.397 3.597 0 4.994-1.351 1.35-3.598 1.35-4.945 0l-30.025-30.017-29.974 30.017a3.588 3.588 0 01-4.996 0c-1.35-1.397-1.35-3.647 0-4.994l29.975-30.017-29.975-29.97z" fill="#E1E6FB"/><path d="M77.04 314.694c-12.034-84.933-38.923-92.337-59.6-135.207C-1.382 140.492-16.562 76.697 36.56 31.09c82.519-70.901 183.72 1.649 183.72 1.649s160.367 97.282 188.392 102.229c28.025 4.946 96.531 54.412 182.163-4.947s158.809-54.412 182.164-9.893c23.354 44.519-29.583 173.13-42.038 199.512-12.456 26.382 6.228 108.825 26.468 141.802 20.24 32.977 84.076 135.207-52.936 131.909C567.481 590.053 156.445 595 156.445 595S8.893 592.082 35.003 440.007C56.8 313.045 81.712 347.671 77.041 314.694z" fill="#F8F8FF" fill-opacity=".5"/><path d="M76.79 328.887c11.322 0 20.5-9.178 20.5-20.5s-9.178-20.5-20.5-20.5-20.5 9.178-20.5 20.5 9.178 20.5 20.5 20.5zM80.633 270.726c6.628 0 12-5.372 12-12 0-6.627-5.372-12-12-12-6.627 0-12 5.373-12 12 0 6.628 5.373 12 12 12zM24.044 115.317c6.903 0 12.5-5.597 12.5-12.5 0-6.904-5.597-12.5-12.5-12.5-6.904 0-12.5 5.596-12.5 12.5 0 6.903 5.596 12.5 12.5 12.5z" fill="#BAC5F4"/><path d="M577.279 569.982c20.158 0 36.5-16.342 36.5-36.5 0-20.159-16.342-36.5-36.5-36.5s-36.5 16.341-36.5 36.5c0 20.158 16.342 36.5 36.5 36.5zM719.704 350.937c11.045 0 20-8.955 20-20 0-11.046-8.955-20-20-20-11.046 0-20 8.954-20 20 0 11.045 8.954 20 20 20zM569.978 176.902c22.092 0 40-17.908 40-40 0-22.091-17.908-40-40-40-22.091 0-40 17.909-40 40 0 22.092 17.909 40 40 40zM203.312 45.703c11.322 0 20.5-9.178 20.5-20.5s-9.178-20.5-20.5-20.5c-11.321 0-20.5 9.178-20.5 20.5s9.179 20.5 20.5 20.5zM141.594 455.661c11.322 0 20.5-9.178 20.5-20.5s-9.178-20.5-20.5-20.5-20.5 9.178-20.5 20.5 9.178 20.5 20.5 20.5z" fill="#E1E6FB"/><path d="M731.005 564.324c11.321 0 20.5-9.178 20.5-20.5s-9.179-20.5-20.5-20.5c-11.322 0-20.5 9.178-20.5 20.5s9.178 20.5 20.5 20.5zM778.051 568.728c6.627 0 12-5.373 12-12 0-6.628-5.373-12-12-12-6.628 0-12 5.372-12 12 0 6.627 5.372 12 12 12z" fill="#BAC5F4"/></svg>