<svg width="791" height="595" fill="none" xmlns="http://www.w3.org/2000/svg"><path d="M366.013 187.48c-1.198-1.2-1.198-3.197 0-4.439a3.176 3.176 0 014.43 0l26.588 26.682 26.632-26.682c1.198-1.2 3.191-1.2 4.386 0 1.24 1.242 1.24 3.242 0 4.439l-26.587 26.64 26.587 26.683c1.24 1.2 1.24 3.197 0 4.439-1.197 1.2-3.191 1.2-4.386 0l-26.632-26.682-26.588 26.682a3.176 3.176 0 01-4.43 0c-1.198-1.242-1.198-3.242 0-4.439L392.6 214.12l-26.587-26.64zM474.782 292.48c-1.198-1.2-1.198-3.197 0-4.439a3.177 3.177 0 014.431 0l26.588 26.682 26.632-26.682c1.198-1.2 3.191-1.2 4.386 0 1.24 1.242 1.24 3.242 0 4.439l-26.588 26.64 26.588 26.683c1.24 1.2 1.24 3.197 0 4.439-1.198 1.2-3.191 1.2-4.386 0l-26.632-26.682-26.588 26.682a3.177 3.177 0 01-4.431 0c-1.198-1.242-1.198-3.242 0-4.439l26.588-26.683-26.588-26.64zM287.274 174.14c-21.98 0-39.916 17.977-39.916 40 0 22.027 17.939 40 39.916 40 21.98 0 39.915-17.977 39.915-40 0-22.027-17.939-40-39.915-40zm0 75.313c-19.431 0-35.238-15.842-35.238-35.313 0-19.471 15.807-35.312 35.238-35.312 19.43 0 35.237 15.841 35.237 35.312 0 19.471-15.807 35.313-35.237 35.313zM397.041 282.14c-21.98 0-39.915 17.977-39.915 40 0 22.027 17.938 40 39.915 40 21.98 0 39.916-17.977 39.916-40 0-22.027-17.939-40-39.916-40zm0 75.313c-19.43 0-35.238-15.842-35.238-35.313 0-19.471 15.808-35.312 35.238-35.312s35.238 15.841 35.238 35.312c0 19.471-15.808 35.313-35.238 35.313zM510.8 384.14c-21.98 0-39.915 17.977-39.915 40 0 22.027 17.938 40 39.915 40 21.98 0 39.916-17.977 39.916-40 0-22.027-17.939-40-39.916-40zm0 75.313c-19.43 0-35.238-15.842-35.238-35.313 0-19.471 15.808-35.312 35.238-35.312s35.238 15.841 35.238 35.312c0 19.471-15.808 35.313-35.238 35.313z" fill="#E5A4ED"/><rect x="247.358" y="365.417" width="289.387" height="10" rx="5" fill="#E5A4ED"/><rect x="247.358" y="257.24" width="289.387" height="10" rx="5" fill="#E5A4ED"/><rect x="335.479" y="171.14" width="9.979" height="290" rx="4.989" fill="#E5A4ED"/><rect x="452.24" y="171.14" width="9.979" height="290" rx="4.989" fill="#E5A4ED"/><g filter="url(#filter0_i)"><rect width="469.444" height="11.989" rx="5.994" transform="rotate(41.634 -99.729 375.638) skewX(.12)" fill="#fff"/></g><path d="M745.344 474.396c-.788-.788-.788-2.099 0-2.914a2.093 2.093 0 012.914 0l17.485 17.51 17.514-17.51a2.058 2.058 0 012.885 0c.815.815.815 2.128 0 2.914l-17.485 17.482 17.485 17.51c.815.787.815 2.098 0 2.913a2.056 2.056 0 01-2.885 0l-17.514-17.51-17.485 17.51a2.091 2.091 0 01-2.914 0c-.788-.815-.788-2.127 0-2.913l17.485-17.51-17.485-17.482zM741.969 164.368c-.788-.788-.788-2.098 0-2.913a2.091 2.091 0 012.914 0l17.485 17.51 17.514-17.51a2.056 2.056 0 012.885 0c.815.815.815 2.127 0 2.913l-17.485 17.482 17.485 17.51c.815.788.815 2.098 0 2.913a2.056 2.056 0 01-2.885 0l-17.514-17.51-17.485 17.51a2.091 2.091 0 01-2.914 0c-.788-.815-.788-2.127 0-2.913l17.485-17.51-17.485-17.482zM107.474 252.303c-.787-.788-.787-2.098 0-2.913a2.091 2.091 0 012.914 0l17.485 17.51 17.515-17.51a2.055 2.055 0 012.884 0c.815.815.815 2.127 0 2.913l-17.485 17.482 17.485 17.51c.815.788.815 2.098 0 2.913a2.055 2.055 0 01-2.884 0l-17.515-17.51-17.485 17.51a2.091 2.091 0 01-2.914 0c-.787-.815-.787-2.127 0-2.913l17.485-17.51-17.485-17.482z" fill="#BAC5F4"/><path d="M160.776 498.319c-1.35-1.35-1.35-3.597 0-4.994a3.588 3.588 0 014.996 0l29.974 30.017 30.025-30.017c1.35-1.35 3.597-1.35 4.945 0 1.397 1.397 1.397 3.647 0 4.994l-29.975 29.97 29.975 30.017c1.397 1.35 1.397 3.597 0 4.994-1.351 1.35-3.598 1.35-4.945 0l-30.025-30.017-29.974 30.017a3.588 3.588 0 01-4.996 0c-1.35-1.397-1.35-3.647 0-4.994l29.975-30.017-29.975-29.97z" fill="#E1E6FB"/><path d="M77.04 314.694c-12.034-84.933-38.923-92.337-59.6-135.207C-1.382 140.492-16.562 76.697 36.56 31.09c82.519-70.901 183.72 1.649 183.72 1.649s160.367 97.282 188.392 102.229c28.025 4.946 96.531 54.412 182.163-4.947s158.809-54.412 182.164-9.893c23.354 44.519-29.583 173.13-42.038 199.512-12.456 26.382 6.228 108.825 26.468 141.802 20.24 32.977 84.075 135.207-52.936 131.909C567.481 590.053 156.445 595 156.445 595S8.893 592.082 35.003 440.007C56.8 313.045 81.712 347.671 77.041 314.694z" fill="#F8F8FF" fill-opacity=".2"/><path d="M76.79 328.887c11.322 0 20.5-9.178 20.5-20.5s-9.178-20.5-20.5-20.5-20.5 9.178-20.5 20.5 9.178 20.5 20.5 20.5zM80.633 270.726c6.628 0 12-5.372 12-12 0-6.627-5.372-12-12-12-6.627 0-12 5.373-12 12 0 6.628 5.373 12 12 12zM24.044 115.317c6.903 0 12.5-5.597 12.5-12.5 0-6.904-5.597-12.5-12.5-12.5-6.904 0-12.5 5.596-12.5 12.5 0 6.903 5.596 12.5 12.5 12.5z" fill="#BAC5F4"/><path d="M577.279 569.982c20.158 0 36.5-16.342 36.5-36.5 0-20.159-16.342-36.5-36.5-36.5s-36.5 16.341-36.5 36.5c0 20.158 16.342 36.5 36.5 36.5zM719.704 350.937c11.045 0 20-8.955 20-20 0-11.046-8.955-20-20-20-11.046 0-20 8.954-20 20 0 11.045 8.954 20 20 20zM569.978 176.902c22.092 0 40-17.908 40-40 0-22.091-17.908-40-40-40-22.091 0-40 17.909-40 40 0 22.092 17.909 40 40 40zM203.312 45.703c11.322 0 20.5-9.178 20.5-20.5s-9.178-20.5-20.5-20.5c-11.321 0-20.5 9.178-20.5 20.5s9.179 20.5 20.5 20.5zM141.594 455.661c11.322 0 20.5-9.178 20.5-20.5s-9.178-20.5-20.5-20.5-20.5 9.178-20.5 20.5 9.178 20.5 20.5 20.5z" fill="#E1E6FB"/><path d="M731.005 564.324c11.321 0 20.5-9.178 20.5-20.5s-9.179-20.5-20.5-20.5c-11.322 0-20.5 9.178-20.5 20.5s9.178 20.5 20.5 20.5zM778.051 568.728c6.627 0 12-5.373 12-12 0-6.628-5.373-12-12-12-6.628 0-12 5.372-12 12 0 6.627 5.372 12 12 12z" fill="#BAC5F4"/><defs><filter id="filter0_i" x="218.889" y="163.61" width="353.882" height="319.919" filterUnits="userSpaceOnUse" color-interpolation-filters="sRGB"><feFlood flood-opacity="0" result="BackgroundImageFix"/><feBlend in="SourceGraphic" in2="BackgroundImageFix" result="shape"/><feColorMatrix in="SourceAlpha" values="0 0 0 0 0 0 0 0 0 0 0 0 0 0 0 0 0 0 127 0" result="hardAlpha"/><feOffset dy="4"/><feGaussianBlur stdDeviation="2"/><feComposite in2="hardAlpha" operator="arithmetic" k2="-1" k3="1"/><feColorMatrix values="0 0 0 0 0 0 0 0 0 0 0 0 0 0 0 0 0 0 0.25 0"/><feBlend in2="shape" result="effect1_innerShadow"/></filter></defs></svg>