<svg width="233" height="474" fill="none" xmlns="http://www.w3.org/2000/svg"><path d="M48.304 472.722c8.253 0 14.943-6.691 14.943-14.943 0-8.253-6.69-14.943-14.943-14.943s-14.943 6.69-14.943 14.943c0 8.252 6.69 14.943 14.943 14.943zM50.645 431.604a8.687 8.687 0 100-17.375 8.687 8.687 0 100 17.375zM69.01 418.105c-.548-.548-.548-1.459 0-2.025a1.455 1.455 0 012.025 0l12.152 12.17 12.173-12.17a1.43 1.43 0 012.005 0c.566.566.566 1.479 0 2.025l-12.153 12.15 12.153 12.17a1.419 1.419 0 010 2.025 1.43 1.43 0 01-2.005 0l-12.173-12.17-12.152 12.17a1.455 1.455 0 01-2.025 0c-.548-.567-.548-1.479 0-2.025l12.152-12.17-12.152-12.15zM36.489 17.375a8.688 8.688 0 100-17.375 8.688 8.688 0 000 17.375z" fill="#BAC5F4" fill-opacity=".5"/><path d="M162.981 430.909c7.869 0 14.248-6.379 14.248-14.248s-6.379-14.247-14.248-14.247-14.248 6.378-14.248 14.247 6.379 14.248 14.248 14.248zM163.171 438.963c-.717-.717-.717-1.909 0-2.651a1.904 1.904 0 012.652 0l15.914 15.936 15.94-15.936a1.872 1.872 0 012.626 0c.742.742.742 1.936 0 2.651l-15.914 15.912 15.914 15.936c.742.717.742 1.91 0 2.651a1.872 1.872 0 01-2.626 0l-15.94-15.936-15.914 15.936a1.904 1.904 0 01-2.652 0c-.717-.741-.717-1.936 0-2.651l15.914-15.936-15.914-15.912z" fill="#E1E6FB" fill-opacity=".5"/><path d="M.41 22.59c-.547-.547-.547-1.458 0-2.024a1.454 1.454 0 012.026 0l12.152 12.17 12.173-12.17a1.43 1.43 0 012.005 0c.566.566.566 1.479 0 2.025L16.613 34.74l12.153 12.17a1.418 1.418 0 010 2.025 1.43 1.43 0 01-2.005 0l-12.173-12.17-12.152 12.17a1.454 1.454 0 01-2.025 0c-.548-.567-.548-1.48 0-2.025l12.152-12.17L.41 22.591z" fill="#BAC5F4" fill-opacity=".5"/><g clip-path="url(#clip0)"><path d="M137.706 397.561c-6.548-.32-13.929-7.046-13.929-7.046l-14.643-1.708s-4.524 12.384.357 14.946c4.881 2.563 34.287 3.31 34.287 0 0-3.309-.477-5.978-6.072-6.192zM38.06 397.134c-5.714-2.883-8.928-11.957-8.928-11.957L16.87 377.81s-10.358 9.288-7.143 13.452c3.214 4.164 28.929 16.869 30.595 13.879 1.667-2.989 2.62-5.445-2.262-8.007z" fill="#4B49BB"/><path d="M59.966 44.604s14.047-26.69 36.667-12.811c22.62 13.879 23.096 32.135 16.31 40.89-7.977 10.356-5.953 18.79-4.524 22.1.357.96 1.19 1.814 2.143 2.242l38.215 19.217 15.238 12.918 36.668-41.424s5.952-7.473 16.667-7.473c10.714 0 15.476 3.203 15.476 3.203s1.191 4.27-11.905 7.473l-13.095 3.203-33.334 53.381s-9.881 3.737-20.477-4.164c-9.286-6.939-17.976-14.413-25.953-22.526l-1.19 123.844 4.047 35.445-1.666 20.926c.119 1.921-.834 22.633-.953 24.555l-2.619 32.029-3.214 32.456-13.334-1.495-2.262-23.488-5.238-84.449-.595-76.335-23.096 47.83.834 27.865-19.048 52.954c-.834 2.242-1.786 4.377-2.977 6.406L29.49 385.497l-12.858-7.153 14.644-33.31c1.547-2.883 9.166-24.983 10.119-28.079l9.762-41.424 42.382-144.876-21.31 9.715s-15.596 31.282-17.977 34.484c-2.38 3.203-30.834 35.446-32.024 39.716-1.19 4.271-5.715 12.491-11.667 14.627-5.953 2.135-16.667 5.658-1.19-14.627 12.142-15.908 19.88-27.758 22.738-32.029.714-1.174 1.428-2.348 2.024-3.63l16.072-36.299 25.595-36.833 3.453-2.242 7.262-5.125c.952-.64 1.428-1.708 1.31-2.775-.834-4.912-3.691-9.395-8.096-12.385-8.334-5.979-25.239-17.295-19.762-38.648z" fill="url(#paint0_linear)"/><path d="M64.966 206.243L50.68 275.638l28.572 5.338 17.858-57.651 4.285 57.545h29.882l2.738-89.574-69.049 14.947z" fill="url(#paint1_linear)"/><path d="M49.608 143.359s9.167-29.68 27.62-39.502c1.905-.961 5.238-4.057 5.476-2.242.358 3.203 2.381 10.677 10.715 10.677 13.095 0 16.905-9.823 16.905-15.16 0-1.602 7.381-1.282 13.81-.321 6.071.854 12.143 3.203 16.191 7.26l12.143 15.267-11.31 11.21-3.572 1.708-3.571 59.147s-26.31 10.889-50.001 13.879c-6.31.64-12.739 1.067-19.048 1.067l4.762-60.854-20.12-2.136z" fill="url(#paint2_linear)"/><path d="M68.18 63.394a118.918 118.918 0 0113.572-12.49c6.905-5.126 10.476-8.115 10.476-8.115s9.405 6.192 13.215 7.367c3.809 1.174 9.524 3.31 9.524 3.31s3.214-9.61-4.762-10.784c-7.976-1.174-31.906-8.968-36.906-5.551-5 3.416-13.452 13.238-14.643 17.936-1.19 4.697 1.786 10.783 3.69 11.957 1.072.64-1.904-4.804-.237-5.872 1.19-.96 6.071 2.242 6.071 2.242z" fill="url(#paint3_linear)"/><path d="M58.656 55.067L133.3 39.373s1.429-3.096-1.309-3.203c-2.739-.107-19.763 5.018-19.763 5.018s-7.381-19.431-31.429-19.004c0 0 .952-1.922-.357-2.029-1.31-.106-7.5 1.388-7.976 1.815-.477.427.952 1.709.238 2.242-.715.534-21.667 9.502-14.048 30.855z" fill="#4B49BB"/><path opacity=".07" d="M110.8 74.925s-4.881 5.445-8.809 6.619c-3.93 1.174-1.667 1.281 0 5.658.833 2.35 2.023 4.484 3.571 6.513 0 0 2.143-17.189 5.238-18.79zM72.704 24.32s3.334 2.882 1.19 10.462c-2.142 7.58-2.857 9.929-1.07 12.811 1.785 2.883.475 4.484.475 4.484l-14.643 3.097c.12-.107-9.047-19.325 14.048-30.855zM69.728 145.388s4.643-5.979 5.12-11.424c.476-5.445-2.143 10.783.833 20.499 2.976 9.715-.476 18.149 5.595 21.566 6.072 3.416 1.31 15.053 2.62 20.071.833 2.99 3.214 5.445 6.428 6.619 0 0-.833 2.67-11.19 3.097-10.358.427-14.168.427-14.168.427l4.762-60.855z" fill="#000"/></g><defs><linearGradient id="paint0_linear" x1="1.39" y1="87.572" x2="232.83" y2="85.834" gradientUnits="userSpaceOnUse"><stop stop-color="#F8C548"/><stop offset=".646" stop-color="#F8C548"/><stop offset=".682" stop-color="#F8C548" stop-opacity=".6"/><stop offset="1" stop-color="#F8C548" stop-opacity=".5"/></linearGradient><linearGradient id="paint1_linear" x1="50.68" y1="236.136" x2="134.015" y2="236.136" gradientUnits="userSpaceOnUse"><stop stop-color="#4B45BD"/><stop offset="1" stop-color="#58CAEA"/></linearGradient><linearGradient id="paint2_linear" x1="49.346" y1="141.435" x2="152.208" y2="120.238" gradientUnits="userSpaceOnUse"><stop stop-color="#AAA5DD"/><stop offset="1" stop-color="#FF0A6C"/></linearGradient><linearGradient id="paint3_linear" x1="58.458" y1="51.674" x2="115.682" y2="51.674" gradientUnits="userSpaceOnUse"><stop stop-color="#4B45BD"/><stop offset="1" stop-color="#58CAEA"/></linearGradient><clipPath id="clip0"><path fill="#fff" transform="translate(1.39 20.155)" d="M0 0h231.44v385.733H0z"/></clipPath></defs></svg>